<mxfile host="app.diagrams.net" modified="2022-05-29T13:03:31.633Z" agent="5.0 (Macintosh; Intel Mac OS X 11_4_0) AppleWebKit/537.36 (KHTML, like Gecko) Chrome/89.0.4389.82 Safari/537.36" etag="MZyls1LKL9LCa2gKGMMT" version="18.0.7" type="github">
  <diagram id="KjJkOPJ2jgcdQYtncmc7" name="Page-1">
    <mxGraphModel dx="829" dy="503" grid="1" gridSize="10" guides="1" tooltips="1" connect="1" arrows="1" fold="1" page="1" pageScale="1" pageWidth="827" pageHeight="1169" math="0" shadow="0">
      <root>
        <mxCell id="0" />
        <mxCell id="1" parent="0" />
        <mxCell id="9zxa_Zxx09-ITc7ooVgl-18" value="" style="rounded=1;whiteSpace=wrap;html=1;fillColor=#f5f5f5;fontColor=#333333;strokeColor=#666666;align=left;arcSize=6;" vertex="1" parent="1">
          <mxGeometry x="430" y="440" width="730" height="270" as="geometry" />
        </mxCell>
        <mxCell id="9zxa_Zxx09-ITc7ooVgl-19" value="" style="rounded=1;whiteSpace=wrap;html=1;fillColor=#E6E6E6;strokeColor=#36393d;arcSize=6;" vertex="1" parent="1">
          <mxGeometry x="452.5" y="470" width="335" height="220" as="geometry" />
        </mxCell>
        <mxCell id="9zxa_Zxx09-ITc7ooVgl-68" value="" style="rounded=1;whiteSpace=wrap;html=1;fillColor=#D4E1F5;strokeColor=#36393d;arcSize=6;" vertex="1" parent="1">
          <mxGeometry x="630" y="480" width="140" height="200" as="geometry" />
        </mxCell>
        <mxCell id="9zxa_Zxx09-ITc7ooVgl-67" value="" style="rounded=1;whiteSpace=wrap;html=1;fillColor=#D4E1F5;strokeColor=#36393d;arcSize=6;" vertex="1" parent="1">
          <mxGeometry x="470" y="480" width="140" height="200" as="geometry" />
        </mxCell>
        <mxCell id="9zxa_Zxx09-ITc7ooVgl-34" value="" style="rounded=1;whiteSpace=wrap;html=1;fillColor=#f5f5f5;fontColor=#333333;strokeColor=#666666;align=left;arcSize=6;" vertex="1" parent="1">
          <mxGeometry x="430" y="730" width="730" height="120" as="geometry" />
        </mxCell>
        <mxCell id="9zxa_Zxx09-ITc7ooVgl-66" style="edgeStyle=orthogonalEdgeStyle;rounded=0;orthogonalLoop=1;jettySize=auto;html=1;exitX=0.5;exitY=1;exitDx=0;exitDy=0;entryX=0.5;entryY=0;entryDx=0;entryDy=0;startArrow=none;startFill=0;" edge="1" parent="1" source="9zxa_Zxx09-ITc7ooVgl-62" target="9zxa_Zxx09-ITc7ooVgl-39">
          <mxGeometry relative="1" as="geometry" />
        </mxCell>
        <mxCell id="9zxa_Zxx09-ITc7ooVgl-62" value="" style="rounded=1;whiteSpace=wrap;html=1;fillColor=#E6E6E6;strokeColor=#36393d;arcSize=6;" vertex="1" parent="1">
          <mxGeometry x="890" y="470" width="210" height="220" as="geometry" />
        </mxCell>
        <mxCell id="9zxa_Zxx09-ITc7ooVgl-12" value="Player" style="rounded=1;whiteSpace=wrap;html=1;fillColor=#FFE599;strokeColor=#000000;arcSize=8;" vertex="1" parent="1">
          <mxGeometry x="935" y="496.25" width="120" height="50" as="geometry" />
        </mxCell>
        <mxCell id="9zxa_Zxx09-ITc7ooVgl-23" value="" style="rounded=1;whiteSpace=wrap;html=1;fillColor=#f5f5f5;fontColor=#333333;strokeColor=#666666;arcSize=6;" vertex="1" parent="1">
          <mxGeometry x="430" y="300" width="730" height="100" as="geometry" />
        </mxCell>
        <mxCell id="9zxa_Zxx09-ITc7ooVgl-8" value="HomeViewModel" style="rounded=1;whiteSpace=wrap;html=1;fillColor=#cce5ff;strokeColor=#36393d;" vertex="1" parent="1">
          <mxGeometry x="560" y="320" width="120" height="50" as="geometry" />
        </mxCell>
        <mxCell id="9zxa_Zxx09-ITc7ooVgl-63" style="edgeStyle=orthogonalEdgeStyle;rounded=0;orthogonalLoop=1;jettySize=auto;html=1;exitX=0.5;exitY=1;exitDx=0;exitDy=0;entryX=0.5;entryY=0;entryDx=0;entryDy=0;startArrow=none;startFill=0;" edge="1" parent="1" source="9zxa_Zxx09-ITc7ooVgl-9" target="9zxa_Zxx09-ITc7ooVgl-62">
          <mxGeometry relative="1" as="geometry" />
        </mxCell>
        <mxCell id="9zxa_Zxx09-ITc7ooVgl-9" value="PlayListViewModel" style="rounded=1;whiteSpace=wrap;html=1;fillColor=#cce5ff;strokeColor=#36393d;arcSize=8;" vertex="1" parent="1">
          <mxGeometry x="840" y="320" width="120" height="50" as="geometry" />
        </mxCell>
        <mxCell id="9zxa_Zxx09-ITc7ooVgl-65" style="edgeStyle=orthogonalEdgeStyle;rounded=0;orthogonalLoop=1;jettySize=auto;html=1;exitX=0.5;exitY=1;exitDx=0;exitDy=0;entryX=0.5;entryY=0;entryDx=0;entryDy=0;startArrow=none;startFill=0;" edge="1" parent="1" source="9zxa_Zxx09-ITc7ooVgl-10" target="9zxa_Zxx09-ITc7ooVgl-62">
          <mxGeometry relative="1" as="geometry" />
        </mxCell>
        <mxCell id="9zxa_Zxx09-ITc7ooVgl-10" value="PlayControlViewModel" style="rounded=1;whiteSpace=wrap;html=1;fillColor=#cce5ff;strokeColor=#36393d;arcSize=8;" vertex="1" parent="1">
          <mxGeometry x="1015" y="320" width="130" height="50" as="geometry" />
        </mxCell>
        <mxCell id="9zxa_Zxx09-ITc7ooVgl-21" style="edgeStyle=orthogonalEdgeStyle;rounded=0;orthogonalLoop=1;jettySize=auto;html=1;exitX=0.5;exitY=1;exitDx=0;exitDy=0;" edge="1" parent="1" source="9zxa_Zxx09-ITc7ooVgl-8" target="9zxa_Zxx09-ITc7ooVgl-19">
          <mxGeometry relative="1" as="geometry" />
        </mxCell>
        <mxCell id="9zxa_Zxx09-ITc7ooVgl-24" value="Model" style="text;html=1;strokeColor=none;fillColor=none;align=center;verticalAlign=middle;whiteSpace=wrap;rounded=0;" vertex="1" parent="1">
          <mxGeometry x="430" y="450" width="60" height="20" as="geometry" />
        </mxCell>
        <mxCell id="9zxa_Zxx09-ITc7ooVgl-25" value="ViewModel" style="text;html=1;strokeColor=none;fillColor=none;align=center;verticalAlign=middle;whiteSpace=wrap;rounded=0;" vertex="1" parent="1">
          <mxGeometry x="440" y="310" width="60" height="20" as="geometry" />
        </mxCell>
        <mxCell id="9zxa_Zxx09-ITc7ooVgl-26" value="" style="rounded=1;whiteSpace=wrap;html=1;fillColor=#f5f5f5;fontColor=#333333;strokeColor=#666666;arcSize=6;" vertex="1" parent="1">
          <mxGeometry x="430" y="40" width="730" height="220" as="geometry" />
        </mxCell>
        <mxCell id="9zxa_Zxx09-ITc7ooVgl-4" value="PlayListFragment" style="rounded=1;whiteSpace=wrap;html=1;arcSize=8;fillColor=#D5E8D4;strokeColor=#36393d;" vertex="1" parent="1">
          <mxGeometry x="840" y="120" width="120" height="50" as="geometry" />
        </mxCell>
        <mxCell id="9zxa_Zxx09-ITc7ooVgl-5" value="PlayControlFragment" style="rounded=1;whiteSpace=wrap;html=1;arcSize=8;fillColor=#D5E8D4;strokeColor=#36393d;" vertex="1" parent="1">
          <mxGeometry x="1020" y="120" width="120" height="50" as="geometry" />
        </mxCell>
        <mxCell id="9zxa_Zxx09-ITc7ooVgl-20" value="" style="rounded=1;whiteSpace=wrap;html=1;arcSize=6;fillColor=#E6E6E6;strokeColor=#36393d;" vertex="1" parent="1">
          <mxGeometry x="460" y="70" width="320" height="160" as="geometry" />
        </mxCell>
        <mxCell id="9zxa_Zxx09-ITc7ooVgl-6" style="edgeStyle=orthogonalEdgeStyle;rounded=0;orthogonalLoop=1;jettySize=auto;html=1;exitX=1;exitY=0.5;exitDx=0;exitDy=0;" edge="1" parent="1" source="9zxa_Zxx09-ITc7ooVgl-1" target="9zxa_Zxx09-ITc7ooVgl-2">
          <mxGeometry relative="1" as="geometry" />
        </mxCell>
        <mxCell id="9zxa_Zxx09-ITc7ooVgl-7" style="edgeStyle=orthogonalEdgeStyle;rounded=0;orthogonalLoop=1;jettySize=auto;html=1;exitX=1;exitY=0.5;exitDx=0;exitDy=0;entryX=0;entryY=0.5;entryDx=0;entryDy=0;" edge="1" parent="1" source="9zxa_Zxx09-ITc7ooVgl-1" target="9zxa_Zxx09-ITc7ooVgl-3">
          <mxGeometry relative="1" as="geometry" />
        </mxCell>
        <mxCell id="9zxa_Zxx09-ITc7ooVgl-1" value="UsbHomeFragment" style="rounded=1;whiteSpace=wrap;html=1;arcSize=8;fillColor=#D5E8D4;strokeColor=#36393d;" vertex="1" parent="1">
          <mxGeometry x="475" y="120" width="115" height="50" as="geometry" />
        </mxCell>
        <mxCell id="9zxa_Zxx09-ITc7ooVgl-2" value="FileFragment" style="rounded=1;whiteSpace=wrap;html=1;arcSize=8;fillColor=#D5E8D4;strokeColor=#36393d;" vertex="1" parent="1">
          <mxGeometry x="645" y="90" width="115" height="50" as="geometry" />
        </mxCell>
        <mxCell id="9zxa_Zxx09-ITc7ooVgl-3" value="SongFragment" style="rounded=1;whiteSpace=wrap;html=1;arcSize=8;fillColor=#D5E8D4;strokeColor=#36393d;" vertex="1" parent="1">
          <mxGeometry x="645" y="160" width="115" height="50" as="geometry" />
        </mxCell>
        <mxCell id="9zxa_Zxx09-ITc7ooVgl-14" style="edgeStyle=orthogonalEdgeStyle;rounded=0;orthogonalLoop=1;jettySize=auto;html=1;exitX=0.5;exitY=1;exitDx=0;exitDy=0;startArrow=none;startFill=0;" edge="1" parent="1" source="9zxa_Zxx09-ITc7ooVgl-4" target="9zxa_Zxx09-ITc7ooVgl-9">
          <mxGeometry relative="1" as="geometry" />
        </mxCell>
        <mxCell id="9zxa_Zxx09-ITc7ooVgl-15" style="edgeStyle=orthogonalEdgeStyle;rounded=0;orthogonalLoop=1;jettySize=auto;html=1;exitX=0.5;exitY=1;exitDx=0;exitDy=0;entryX=0.5;entryY=0;entryDx=0;entryDy=0;startArrow=none;startFill=0;" edge="1" parent="1" source="9zxa_Zxx09-ITc7ooVgl-5" target="9zxa_Zxx09-ITc7ooVgl-10">
          <mxGeometry relative="1" as="geometry" />
        </mxCell>
        <mxCell id="9zxa_Zxx09-ITc7ooVgl-22" style="edgeStyle=orthogonalEdgeStyle;rounded=0;orthogonalLoop=1;jettySize=auto;html=1;exitX=0.5;exitY=1;exitDx=0;exitDy=0;entryX=0.5;entryY=0;entryDx=0;entryDy=0;startArrow=none;startFill=0;" edge="1" parent="1" source="9zxa_Zxx09-ITc7ooVgl-20" target="9zxa_Zxx09-ITc7ooVgl-8">
          <mxGeometry relative="1" as="geometry" />
        </mxCell>
        <mxCell id="9zxa_Zxx09-ITc7ooVgl-27" value="View" style="text;html=1;strokeColor=none;fillColor=none;align=center;verticalAlign=middle;whiteSpace=wrap;rounded=0;" vertex="1" parent="1">
          <mxGeometry x="420" y="50" width="60" height="20" as="geometry" />
        </mxCell>
        <mxCell id="9zxa_Zxx09-ITc7ooVgl-35" value="Service" style="rounded=1;whiteSpace=wrap;html=1;fillColor=#FFE599;strokeColor=#000000;arcSize=8;" vertex="1" parent="1">
          <mxGeometry x="935" y="588.75" width="120" height="50" as="geometry" />
        </mxCell>
        <mxCell id="9zxa_Zxx09-ITc7ooVgl-36" value="Media Database" style="rounded=1;whiteSpace=wrap;html=1;fillColor=#99CCFF;strokeColor=#000000;arcSize=8;" vertex="1" parent="1">
          <mxGeometry x="480" y="770" width="120" height="50" as="geometry" />
        </mxCell>
        <mxCell id="9zxa_Zxx09-ITc7ooVgl-37" value="File" style="rounded=1;whiteSpace=wrap;html=1;fillColor=#FFE599;strokeColor=#000000;arcSize=2;" vertex="1" parent="1">
          <mxGeometry x="490" y="573.75" width="100" height="30" as="geometry" />
        </mxCell>
        <mxCell id="9zxa_Zxx09-ITc7ooVgl-39" value="Cache" style="rounded=1;whiteSpace=wrap;html=1;fillColor=#99CCFF;strokeColor=#000000;arcSize=8;" vertex="1" parent="1">
          <mxGeometry x="935" y="770" width="120" height="50" as="geometry" />
        </mxCell>
        <mxCell id="9zxa_Zxx09-ITc7ooVgl-40" value="Data" style="text;html=1;strokeColor=none;fillColor=none;align=center;verticalAlign=middle;whiteSpace=wrap;rounded=0;" vertex="1" parent="1">
          <mxGeometry x="430" y="740" width="60" height="20" as="geometry" />
        </mxCell>
        <mxCell id="9zxa_Zxx09-ITc7ooVgl-42" style="edgeStyle=orthogonalEdgeStyle;rounded=0;orthogonalLoop=1;jettySize=auto;html=1;exitX=0.5;exitY=1;exitDx=0;exitDy=0;entryX=0.5;entryY=0;entryDx=0;entryDy=0;startArrow=none;startFill=0;" edge="1" parent="1" source="9zxa_Zxx09-ITc7ooVgl-12" target="9zxa_Zxx09-ITc7ooVgl-35">
          <mxGeometry relative="1" as="geometry" />
        </mxCell>
        <mxCell id="9zxa_Zxx09-ITc7ooVgl-51" value="ContentResolver" style="rounded=1;whiteSpace=wrap;html=1;fillColor=#FFE599;strokeColor=#000000;arcSize=2;" vertex="1" parent="1">
          <mxGeometry x="490" y="603.75" width="100" height="30" as="geometry" />
        </mxCell>
        <mxCell id="9zxa_Zxx09-ITc7ooVgl-54" style="edgeStyle=orthogonalEdgeStyle;rounded=0;orthogonalLoop=1;jettySize=auto;html=1;exitX=0.5;exitY=1;exitDx=0;exitDy=0;entryX=0.5;entryY=0;entryDx=0;entryDy=0;startArrow=none;startFill=0;" edge="1" parent="1" source="9zxa_Zxx09-ITc7ooVgl-53" target="9zxa_Zxx09-ITc7ooVgl-37">
          <mxGeometry relative="1" as="geometry" />
        </mxCell>
        <mxCell id="9zxa_Zxx09-ITc7ooVgl-53" value="DataRepository" style="rounded=1;whiteSpace=wrap;html=1;fillColor=#FFE599;strokeColor=#000000;arcSize=8;" vertex="1" parent="1">
          <mxGeometry x="480" y="496.25" width="120" height="50" as="geometry" />
        </mxCell>
        <mxCell id="9zxa_Zxx09-ITc7ooVgl-59" style="edgeStyle=orthogonalEdgeStyle;rounded=0;orthogonalLoop=1;jettySize=auto;html=1;exitX=0.5;exitY=1;exitDx=0;exitDy=0;entryX=0.5;entryY=0;entryDx=0;entryDy=0;startArrow=none;startFill=0;" edge="1" parent="1" source="9zxa_Zxx09-ITc7ooVgl-55" target="9zxa_Zxx09-ITc7ooVgl-58">
          <mxGeometry relative="1" as="geometry" />
        </mxCell>
        <mxCell id="9zxa_Zxx09-ITc7ooVgl-55" value="UsbManager" style="rounded=1;whiteSpace=wrap;html=1;fillColor=#FFE599;strokeColor=#000000;arcSize=8;" vertex="1" parent="1">
          <mxGeometry x="640" y="496.25" width="120" height="50" as="geometry" />
        </mxCell>
        <mxCell id="9zxa_Zxx09-ITc7ooVgl-58" value="Broadcast" style="rounded=1;whiteSpace=wrap;html=1;fillColor=#FFE599;strokeColor=#000000;arcSize=2;" vertex="1" parent="1">
          <mxGeometry x="650" y="573.75" width="100" height="30" as="geometry" />
        </mxCell>
        <mxCell id="9zxa_Zxx09-ITc7ooVgl-60" value="UsbDevice" style="rounded=1;whiteSpace=wrap;html=1;fillColor=#FFE599;strokeColor=#000000;arcSize=2;" vertex="1" parent="1">
          <mxGeometry x="650" y="603.75" width="100" height="30" as="geometry" />
        </mxCell>
        <mxCell id="9zxa_Zxx09-ITc7ooVgl-61" value="ScanStatus" style="rounded=1;whiteSpace=wrap;html=1;fillColor=#FFE599;strokeColor=#000000;arcSize=2;" vertex="1" parent="1">
          <mxGeometry x="650" y="633.75" width="100" height="30" as="geometry" />
        </mxCell>
        <mxCell id="9zxa_Zxx09-ITc7ooVgl-71" style="edgeStyle=orthogonalEdgeStyle;rounded=0;orthogonalLoop=1;jettySize=auto;html=1;exitX=0.5;exitY=1;exitDx=0;exitDy=0;entryX=0.5;entryY=0;entryDx=0;entryDy=0;startArrow=none;startFill=0;" edge="1" parent="1" source="9zxa_Zxx09-ITc7ooVgl-67" target="9zxa_Zxx09-ITc7ooVgl-36">
          <mxGeometry relative="1" as="geometry" />
        </mxCell>
        <mxCell id="9zxa_Zxx09-ITc7ooVgl-72" value="StorageManager" style="rounded=1;whiteSpace=wrap;html=1;fillColor=#99CCFF;strokeColor=#000000;arcSize=8;" vertex="1" parent="1">
          <mxGeometry x="640" y="770" width="120" height="50" as="geometry" />
        </mxCell>
        <mxCell id="9zxa_Zxx09-ITc7ooVgl-73" style="edgeStyle=orthogonalEdgeStyle;rounded=0;orthogonalLoop=1;jettySize=auto;html=1;exitX=0.5;exitY=1;exitDx=0;exitDy=0;entryX=0.5;entryY=0;entryDx=0;entryDy=0;startArrow=none;startFill=0;" edge="1" parent="1" source="9zxa_Zxx09-ITc7ooVgl-68" target="9zxa_Zxx09-ITc7ooVgl-72">
          <mxGeometry relative="1" as="geometry" />
        </mxCell>
      </root>
    </mxGraphModel>
  </diagram>
</mxfile>
